<?xml version="1.0"?>
<svg xmlns="http://www.w3.org/2000/svg" height="512px" viewBox="0 0 512 512" width="512px" class=""><g><path d="m356.332031 202h-60c-8.28125 0-15 6.714844-15 15v280c0 8.285156 6.71875 15 15 15h60c8.285157 0 15-6.714844 15-15v-280c0-8.285156-6.714843-15-15-15zm-15 280h-30v-250h30zm0 0" data-original="#000000" class="active-path" data-old_color="#000000" fill="#FFFFFF"/><path d="m215.667969 282h-60c-8.285157 0-15 6.714844-15 15v200c0 8.285156 6.714843 15 15 15h60c8.28125 0 15-6.714844 15-15v-200c0-8.285156-6.71875-15-15-15zm-15 200h-30v-170h30zm0 0" data-original="#000000" class="active-path" data-old_color="#000000" fill="#FFFFFF"/><path d="m45 372h30c8.285156 0 15-6.714844 15-15s-6.714844-15-15-15h-15v-5c0-8.285156-6.714844-15-15-15s-15 6.714844-15 15v7.578125c-17.460938 6.195313-30 22.867187-30 42.421875 0 24.8125 20.1875 45 45 45 8.269531 0 15 6.730469 15 15s-6.730469 15-15 15h-30c-8.285156 0-15 6.714844-15 15s6.714844 15 15 15h15v5c0 8.285156 6.714844 15 15 15s15-6.714844 15-15v-7.578125c17.460938-6.195313 30-22.867187 30-42.421875 0-24.8125-20.1875-45-45-45-8.269531 0-15-6.730469-15-15s6.730469-15 15-15zm0 0" data-original="#000000" class="active-path" data-old_color="#000000" fill="#FFFFFF"/><path d="m497 122h-60c-8.285156 0-15 6.714844-15 15v360c0 8.285156 6.714844 15 15 15h60c8.285156 0 15-6.714844 15-15v-360c0-8.285156-6.714844-15-15-15zm-15 360h-30v-330h30zm0 0" data-original="#000000" class="active-path" data-old_color="#000000" fill="#FFFFFF"/><path d="m15 250c62.816406 0 121.847656-24.429688 166.207031-68.792969 37.121094-37.121093 60.273438-84.515625 66.847657-135.800781l37.34375 31.117188c6.363281 5.300781 15.820312 4.441406 21.125-1.921876 5.304687-6.363281 4.441406-15.820312-1.921876-21.125l-60-50c-.007812-.007812-.019531-.015624-.03125-.023437-.09375-.082031-.199218-.152344-.296874-.230469-.257813-.203125-.515626-.402344-.785157-.585937-.144531-.101563-.296875-.191407-.449219-.285157-.230468-.148437-.464843-.292968-.703124-.425781-.167969-.097656-.339844-.183593-.511719-.273437-.230469-.117188-.464844-.230469-.699219-.335938-.183594-.082031-.363281-.160156-.550781-.234375-.242188-.097656-.488281-.1875-.734375-.269531-.183594-.0625-.363282-.125-.546875-.179688-.316407-.097656-.636719-.175781-.957031-.246093-.121094-.027344-.234376-.066407-.355469-.089844-.445313-.089844-.890625-.152344-1.339844-.203125-.132813-.015625-.265625-.0195312-.398437-.03125-.34375-.0273438-.6875-.046875-1.027344-.0507812-.074219 0-.144532-.0117188-.214844-.0117188-.082031 0-.160156.0117188-.238281.0117188-.335938.0039062-.667969.0234374-1 .0507812-.148438.0117188-.292969.0195312-.4375.0351562-.375.0429688-.746094.1015628-1.117188.1718748-.089843.015625-.179687.027344-.265625.042969-.429687.089844-.855468.203125-1.28125.332031-.175781.050781-.347656.117188-.519531.175781-.253906.085938-.507813.175782-.757813.277344-.1875.074219-.371093.160156-.558593.242188-.226563.105468-.453125.210937-.679688.328125-.179687.09375-.363281.191406-.542969.292969-.21875.125-.433593.257812-.648437.394531-.167969.105469-.339844.210937-.5.328125-.058594.039062-.117187.070312-.171875.109375l-70 50c-6.742188 4.816406-8.300781 14.183593-3.484375 20.925781 2.925781 4.097656 7.535156 6.28125 12.21875 6.28125 3.015625 0 6.0625-.90625 8.703125-2.796875l44.003906-31.429687c-6.4375 43.113281-26.375 82.867187-57.726562 114.21875-38.695313 38.695312-90.191406 60.007812-144.996094 60.007812-8.285156 0-15 6.714844-15 15s6.714844 15 15 15zm0 0" data-original="#000000" class="active-path" data-old_color="#000000" fill="#FFFFFF"/></g> </svg>
